<svg id="Layer_1" data-name="Layer 1" xmlns="http://www.w3.org/2000/svg" viewBox="0 0 488.08 137"><defs><style>.cls-1,.cls-3{fill:#213d78;}.cls-2{fill:#ec2426;}.cls-3{stroke:#213e78;stroke-miterlimit:10;}</style></defs><path class="cls-1" d="M79.69,141.28c9.91,0,19.82.06,29.73,0a32.48,32.48,0,0,0,8.62-.78,18.86,18.86,0,0,0,7.88-31.73c-2.25-2.21-2.88-3.79-2-6.9,3.4-11.6-5-22.61-17.25-22.78-10.16-.13-20.32,0-31.35,0a32,32,0,0,1,2.89-2.23c8.33-4.88,16.61-9.88,25.11-14.46a7.87,7.87,0,0,1,6.46-.11c12.13,6.68,24.1,13.64,36,20.77a7.25,7.25,0,0,1,3.09,5.12q.38,21,0,42a7.16,7.16,0,0,1-3,5.16c-11.86,7.14-23.88,14-35.92,20.85-1.39.78-3.73,1.51-4.87.89-8.68-4.73-17.17-9.79-25.72-14.75C79.51,142,79.6,141.62,79.69,141.28Z" transform="translate(-70.72 -61.6)"/><path class="cls-1" d="M342.86,127.17c-9.22,6.24-15.69,13-12,24.76H315V66h15.19v49.35l1.12.58c1.41-1.36,2.85-2.69,4.23-4.09,6.24-6.3,12.31-12.78,18.79-18.82a14,14,0,0,1,7.44-3.13c4.23-.5,8.57-.13,14-.13l-22.53,24.4,23,38.07c-6,0-11.18.16-16.35-.14-1-.06-2.16-1.74-2.91-2.89-4-6.23-7.91-12.52-11.86-18.78C344.36,129.25,343.54,128.14,342.86,127.17Z" transform="translate(-70.72 -61.6)"/><path class="cls-1" d="M157.7,120.66c.14-18.37,15.26-32,35.24-31.88,18.19.16,33,14.72,32.85,32.32-.15,17.82-15.72,32.41-34.28,32.12C172.55,152.92,157.56,138.48,157.7,120.66ZM192,103c-10.58-.07-18.74,7.65-18.78,17.77,0,9.91,8.44,18.26,18.53,18.27s18.38-8,18.47-17.77C210.32,110.93,202.49,103.07,192,103Z" transform="translate(-70.72 -61.6)"/><path class="cls-1" d="M270.38,88.78c19.12,0,33.84,14,33.84,32.23,0,17.84-15.54,32.52-34.08,32.21-19.08-.32-33.95-14.56-33.92-32.47S251.24,88.77,270.38,88.78Zm.21,14.22c-10.48-.12-18.8,7.66-18.91,17.7-.12,9.86,8.35,18.24,18.52,18.33,9.93.1,18.38-8,18.56-17.69C289,111.07,281.09,103.12,270.59,103Z" transform="translate(-70.72 -61.6)"/><path class="cls-1" d="M435.44,132.31l9.48,7.95c-8.3,10.63-23.43,15.42-36.7,11.67-13-3.65-20.51-12.45-22.67-25.46-2.38-14.35,3.61-27.33,15.42-33.7,11-5.92,22.41-6.1,33,.75,11.25,7.27,13.61,18.77,13.23,31.79H401.28C403.91,140.69,421.06,144.05,435.44,132.31Zm-3.82-17c.16-8.3-4.88-13.59-13-14-9.17-.52-16.14,5.07-17.11,14Z" transform="translate(-70.72 -61.6)"/><path class="cls-1" d="M507.15,146.86l5.21-10.23c7.06,1.3,13.75,2.73,20.51,3.69a14.47,14.47,0,0,0,7.51-.85,7.33,7.33,0,0,0,3.91-4.77c.19-1.42-1.71-3.93-3.27-4.62-3.64-1.6-7.66-2.33-11.48-3.54a99.14,99.14,0,0,1-11.82-4.05c-6-2.76-9.51-7.41-9.57-14.37-.07-7.32,3-12.84,9.41-16.15,10.32-5.31,21-3.48,31.58-.8,2.15.54,4.19,1.48,6.85,2.45-1.72,3.91-3.3,7.49-4.67,10.62-7.06-1-13.67-2.09-20.3-2.91a7.32,7.32,0,0,0-4.66.74c-1.69,1.15-3.73,2.94-4,4.69-.18,1.32,2,3.72,3.56,4.35,4.16,1.64,8.61,2.55,12.93,3.77,2.32.66,4.68,1.21,6.93,2.06,9.27,3.52,13.23,8.93,13,17.55-.25,8.43-5.27,14.42-14.39,17.16C533.57,154.91,517.24,152.89,507.15,146.86Z" transform="translate(-70.72 -61.6)"/><path class="cls-1" d="M458.31,90h15.51c.18,2.39.36,4.69.59,7.73,5.4-5.44,11.24-8.65,18.51-8.94,3.45-.14,5,.76,4.77,4.54-.3,4.14-.07,8.31-.07,12.69-3.76,0-7.13-.34-10.4.07-8,1-12.73,6.11-13,14.2-.25,8.68-.11,17.38-.14,26.06v5.59H458.31Z" transform="translate(-70.72 -61.6)"/><path class="cls-2" d="M70.83,129.16v-14H84.75c10.3,0,20.59,0,30.89,0,3.82,0,7,1.35,7.9,5.57.65,3.28-.26,6.1-3.54,7.62a7.83,7.83,0,0,1-3.22.75C101.67,129.18,86.55,129.16,70.83,129.16Z" transform="translate(-70.72 -61.6)"/><path class="cls-2" d="M70.72,103V91.47A25.35,25.35,0,0,1,74,91c11.9,0,23.81-.05,35.71,0,5.4,0,8.06,2.16,7.94,6.2-.11,3.8-2.68,5.77-7.87,5.79C96.9,103.05,84.06,103,70.72,103Z" transform="translate(-70.72 -61.6)"/><path class="cls-3" d="M158.91,172h9.62c8,0,13.47,4.94,13.47,12.68s-5.39,13.12-13.52,13.12h-9.57Zm2.24,24h7c7.67,0,11.44-4.79,11.44-11.16,0-5.68-3.4-11-11.44-11h-7Z" transform="translate(-70.72 -61.6)"/><path class="cls-3" d="M216.2,185.13H201.4V196h16.21l-.33,1.85H199.16V172h17.78v1.84H201.4v9.44h14.8Z" transform="translate(-70.72 -61.6)"/><path class="cls-3" d="M234.31,190.88c.87,3.42,3.44,5.45,8.21,5.45,5.31,0,7.34-2.36,7.34-5.16s-1.45-4.71-7.84-6.11c-6.13-1.37-8.78-3.14-8.78-6.86,0-3.39,2.77-6.56,9-6.56,6.39,0,9.08,3.47,9.45,6.6h-2.32c-.66-2.77-2.69-4.76-7.25-4.76-4.19,0-6.47,1.74-6.47,4.61s1.91,3.94,7.25,5.12c8.17,1.81,9.37,4.72,9.37,7.82,0,3.79-3.11,7.07-9.82,7.07-7.26,0-9.91-3.76-10.45-7.22Z" transform="translate(-70.72 -61.6)"/><path class="cls-3" d="M269.22,172h2.24v13.41c2.32-2,10.61-8.91,15.79-13.41h3l-13,11L291,197.81H288.2l-12.6-13.53-4.14,3.24v10.29h-2.24Z" transform="translate(-70.72 -61.6)"/><path class="cls-1" d="M334.43,193.31v-.42c1-.11,1.15-.26.93-.83s-.52-1.32-.85-2.25h-3.42c-.25.67-.49,1.24-.71,1.85-.35,1-.13,1.09,1.17,1.23v.42H327.9v-.42c1-.11,1.25-.22,1.8-1.55l3.27-7.79.51-.09c1,2.54,2.09,5.34,3.08,7.91.51,1.29.65,1.41,1.77,1.52v.42Zm-1.58-7.91-1.52,3.8h3Z" transform="translate(-70.72 -61.6)"/><path class="cls-1" d="M353.52,190.85c-.09.46-.57,2-.73,2.46h-7.35v-.42c1.44-.13,1.57-.2,1.57-1.46v-5.89c0-1.26-.16-1.34-1.43-1.46v-.41h4.24v.41c-1.26.12-1.44.18-1.44,1.46v6c0,.91.13,1.12,1,1.13l1.25,0c.81,0,1-.09,1.41-.46a5.16,5.16,0,0,0,1-1.53Z" transform="translate(-70.72 -61.6)"/><path class="cls-1" d="M369.12,190.85c-.1.46-.57,2-.73,2.46H361v-.42c1.44-.13,1.56-.2,1.56-1.46v-5.89c0-1.26-.15-1.34-1.42-1.46v-.41h4.24v.41c-1.27.12-1.44.18-1.44,1.46v6c0,.91.13,1.12,1,1.13l1.25,0c.8,0,1-.09,1.4-.46a5,5,0,0,0,1-1.53Z" transform="translate(-70.72 -61.6)"/><path class="cls-1" d="M387.08,193.31v-.42c1.29-.13,1.42-.19,1.42-1.45v-5.89c0-1.27-.13-1.33-1.42-1.47v-.41h4.24v.41c-1.32.14-1.44.2-1.44,1.47v5.89c0,1.28.12,1.32,1.44,1.45v.42Z" transform="translate(-70.72 -61.6)"/><path class="cls-1" d="M410.45,184.08c-1,.11-1.34.26-1.39.94,0,.47,0,1.1,0,2.47v5.95h-.61l-6.76-7.75v3.7c0,1.34,0,2,.08,2.44,0,.75.42,1,1.56,1.06v.42h-3.84v-.42c1-.07,1.36-.29,1.42-1a24.61,24.61,0,0,0,.08-2.49V185.6a1.24,1.24,0,0,0-.31-1c-.31-.37-.64-.46-1.41-.54v-.41h2.37l6.7,7.46v-3.64a23.32,23.32,0,0,0-.08-2.46c0-.66-.41-.87-1.67-.95v-.41h3.9Z" transform="translate(-70.72 -61.6)"/><path class="cls-1" d="M428.47,195.26v-.67c3.18-.17,3.35-.29,3.35-2.09v-9.2c0-1.22-.2-1.27-1.46-1.36l-1.4-.12v-.6A27.62,27.62,0,0,0,434.2,180V192.5c0,1.82.17,1.92,3.38,2.09v.67Z" transform="translate(-70.72 -61.6)"/><path class="cls-1" d="M462.57,190.94a21.17,21.17,0,0,1-.87,2.24,16.37,16.37,0,0,1-2.9.35c-3.78,0-5.71-2.36-5.71-4.95,0-3,2.45-5.12,6-5.12a17.46,17.46,0,0,1,3,.34c.07.67.18,1.56.31,2.3l-.49.1a2.59,2.59,0,0,0-1.51-1.91,4.54,4.54,0,0,0-1.66-.28c-2.61,0-4,1.81-4,4.26,0,2.86,1.58,4.7,4.14,4.7,1.61,0,2.4-.7,3.21-2.18Z" transform="translate(-70.72 -61.6)"/><path class="cls-1" d="M478.64,190.85c-.1.46-.57,2-.73,2.46h-7.35v-.42c1.44-.13,1.56-.2,1.56-1.46v-5.89c0-1.26-.15-1.34-1.42-1.46v-.41h4.24v.41c-1.27.12-1.44.18-1.44,1.46v6c0,.91.13,1.12,1,1.13l1.25,0c.8,0,1-.09,1.4-.46a5,5,0,0,0,1-1.53Z" transform="translate(-70.72 -61.6)"/><path class="cls-1" d="M486.3,193.31v-.42c1.3-.13,1.42-.19,1.42-1.45v-5.89c0-1.27-.12-1.33-1.42-1.47v-.41h4.24v.41c-1.32.14-1.44.2-1.44,1.47v5.89c0,1.28.12,1.32,1.44,1.45v.42Z" transform="translate(-70.72 -61.6)"/><path class="cls-1" d="M508.13,190.94a21.17,21.17,0,0,1-.87,2.24,16.37,16.37,0,0,1-2.9.35c-3.78,0-5.7-2.36-5.7-4.95,0-3,2.45-5.12,6-5.12a17.75,17.75,0,0,1,3,.34c.06.67.17,1.56.3,2.3l-.49.1a2.59,2.59,0,0,0-1.51-1.91,4.54,4.54,0,0,0-1.66-.28c-2.61,0-4,1.81-4,4.26,0,2.86,1.58,4.7,4.14,4.7,1.61,0,2.41-.7,3.21-2.18Z" transform="translate(-70.72 -61.6)"/><path class="cls-1" d="M516.26,183.67h4.22v.41c-1.23.11-1.45.21-1.45,1.53v2.55a2.21,2.21,0,0,0,1.14-.68c.88-.79,1.94-1.79,2.67-2.57.47-.5.43-.69-.25-.78l-.45,0v-.41H526v.41a3.5,3.5,0,0,0-2.66,1.23c-.47.43-1.71,1.56-2.72,2.5,1.2,1.33,3,3.23,3.78,4.05a2.49,2.49,0,0,0,2,1v.42h-2.53c-1.22-1.29-2.5-2.73-3.94-4.3a1,1,0,0,0-.88-.43v2.82c0,1.29.14,1.39,1.45,1.49v.42h-4.22v-.42c1.3-.1,1.43-.2,1.43-1.49v-5.79c0-1.33-.12-1.44-1.43-1.53Z" transform="translate(-70.72 -61.6)"/><path class="cls-1" d="M263.57,130.47h-2.82v-2.88h2.82Z" transform="translate(-70.72 -61.6)"/><path class="cls-1" d="M266,127.59h2.81v2.88H266Z" transform="translate(-70.72 -61.6)"/><path class="cls-1" d="M274.39,127.59v2.85h-2.83v-2.85Z" transform="translate(-70.72 -61.6)"/><path class="cls-1" d="M260.75,117.58h2.82v2.9h-2.82Z" transform="translate(-70.72 -61.6)"/><path class="cls-1" d="M266,120.46v-2.88h2.84v2.88Z" transform="translate(-70.72 -61.6)"/><path class="cls-1" d="M274.39,117.58v2.89h-2.83v-2.89Z" transform="translate(-70.72 -61.6)"/><path class="cls-1" d="M279.53,117.58v2.88h-2.84v-2.88Z" transform="translate(-70.72 -61.6)"/><path class="cls-1" d="M276.71,112.63h2.81v2.87h-2.81Z" transform="translate(-70.72 -61.6)"/><path class="cls-1" d="M268.81,115.51H266v-2.88h2.81Z" transform="translate(-70.72 -61.6)"/><path class="cls-1" d="M274.39,112.63v2.85h-2.83v-2.85Z" transform="translate(-70.72 -61.6)"/><path class="cls-1" d="M260.75,122.57h2.82v2.89h-2.82Z" transform="translate(-70.72 -61.6)"/><path class="cls-1" d="M266,125.45v-2.88h2.84v2.88Z" transform="translate(-70.72 -61.6)"/><path class="cls-1" d="M274.39,122.57v2.89h-2.83v-2.89Z" transform="translate(-70.72 -61.6)"/><path class="cls-1" d="M279.53,122.57v2.88h-2.84v-2.88Z" transform="translate(-70.72 -61.6)"/><rect class="cls-1" x="255.91" y="136.21" width="199.75" height="0.23"/></svg>