<svg id="ea61258a-e793-48f7-8624-3c5ca462ffd9" xmlns="http://www.w3.org/2000/svg" viewBox="0 0 882.35 779"><defs><style>.cls-1{fill:#e6e6e6;}.cls-2{fill:#fff;}.cls-3{fill:#ccc;}.cls-12,.cls-4{fill:#213d78;}.cls-5{fill:#3f3d56;}.cls-6{fill:#6c63ff;}.cls-7{fill:#2f2e41;}.cls-8{fill:#ffb8b8;}.cls-9{fill:#575a89;}.cls-10{opacity:0.2;isolation:isolate;}.cls-11{fill:#eb2426;}.cls-12{stroke:#203d78;stroke-miterlimit:10;}</style></defs><path class="cls-1" d="M342.36,20.06l3.47-5.36a80.5,80.5,0,0,0-3.56-8.33L340,8.18l1.77-2.75c-1.69-3.33-3-5.43-3-5.43s-7,11-9.28,22.57L334,29.46l-4.93-4a31.06,31.06,0,0,0-.27,4.08c0,13.75,4.49,24.9,10,24.9s10-11.15,10-24.9a42.88,42.88,0,0,0-2.29-12.84Z" transform="translate(0 0)"/><path class="cls-1" d="M366.92,32l6.24-1.34a79.35,79.35,0,0,0,3.38-8.41l-2.87-.3,3.2-.69c1.16-3.55,1.7-6,1.7-6S365.9,18.1,356,24.66l-1.71,8-.67-6.3a34.39,34.39,0,0,0-3.08,2.7c-9.72,9.72-14.43,20.78-10.51,24.69s15-.79,24.7-10.51a43,43,0,0,0,7.46-10.71Z" transform="translate(0 0)"/><path class="cls-1" d="M369.2,85.18c-14.48.93-30.26-.05-47.05,0V46.75c14.8,2.3,30.57,2.07,47.05,0Z" transform="translate(0 0)"/><path class="cls-1" d="M472.8,115.15l2.26-3.5a51.8,51.8,0,0,0-2.32-5.43l-1.46,1.18,1.16-1.79c-1.11-2.17-2-3.54-2-3.54a50,50,0,0,0-6.06,14.72l2.91,4.49-3.22-2.6a23.61,23.61,0,0,0-.18,2.66c0,9,2.93,16.24,6.55,16.24s6.54-7.27,6.54-16.24a28.15,28.15,0,0,0-1.5-8.38Z" transform="translate(0 0)"/><path class="cls-1" d="M488.82,122.93l4.07-.88a50.93,50.93,0,0,0,2.2-5.48l-1.87-.2,2.09-.45c.75-2.31,1.11-3.9,1.11-3.9a50.24,50.24,0,0,0-14.7,6.13l-1.12,5.23-.43-4.11a19.78,19.78,0,0,0-2,1.76c-6.34,6.34-9.41,13.55-6.85,16.1s9.76-.51,16.1-6.85a28,28,0,0,0,4.87-7Z" transform="translate(0 0)"/><path class="cls-1" d="M490.3,157.62c-9.44.61-19.73,0-30.68,0V132.56a111,111,0,0,0,30.68,0Z" transform="translate(0 0)"/><path class="cls-1" d="M484.47,231.9c-8.34.53-17.42,0-27.09,0V209.77a97.54,97.54,0,0,0,27.09,0Z" transform="translate(0 0)"/><rect class="cls-1" x="167.51" y="82.48" width="364.55" height="10.18"/><rect class="cls-1" x="167.51" y="154.78" width="364.55" height="10.18"/><rect class="cls-1" x="167.51" y="227.08" width="364.55" height="10.18"/><circle class="cls-1" cx="470.96" cy="197.55" r="20.37"/><circle class="cls-2" cx="470.96" cy="197.55" r="16.29"/><circle class="cls-1" cx="470.96" cy="197.55" r="4.07"/><rect class="cls-1" x="468.92" y="196.53" width="16.29" height="2.04"/><rect class="cls-1" x="469.94" y="183.29" width="2.04" height="16.29"/><rect class="cls-1" x="339.73" y="105.1" width="13.48" height="53.34"/><rect class="cls-3" x="339.73" y="113.53" width="13.48" height="6.18"/><rect class="cls-3" x="339.73" y="140.48" width="13.48" height="6.18"/><rect class="cls-1" x="318.95" y="105.1" width="13.48" height="53.34"/><rect class="cls-3" x="318.95" y="113.53" width="13.48" height="6.18"/><rect class="cls-3" x="318.95" y="140.48" width="13.48" height="6.18"/><rect class="cls-1" x="363.87" y="105.1" width="13.48" height="53.34" transform="translate(-19.99 178.12) rotate(-26.34)"/><rect class="cls-3" x="357.14" y="115.1" width="13.48" height="6.18" transform="translate(-14.66 173.72) rotate(-26.34)"/><rect class="cls-3" x="369.1" y="139.25" width="13.48" height="6.18" transform="translate(-24.14 181.53) rotate(-26.34)"/><rect class="cls-1" x="219.57" y="177.4" width="13.48" height="53.34"/><rect class="cls-3" x="219.57" y="185.82" width="13.48" height="6.18"/><rect class="cls-3" x="219.57" y="212.77" width="13.48" height="6.18"/><rect class="cls-1" x="198.79" y="177.4" width="13.48" height="53.34"/><rect class="cls-3" x="198.79" y="185.82" width="13.48" height="6.18"/><rect class="cls-3" x="198.79" y="212.77" width="13.48" height="6.18"/><rect class="cls-1" x="243.71" y="177.4" width="13.48" height="53.34" transform="translate(-64.54 132.31) rotate(-26.34)"/><rect class="cls-3" x="236.98" y="187.4" width="13.48" height="6.18" transform="translate(-59.21 127.91) rotate(-26.34)"/><rect class="cls-3" x="248.94" y="211.55" width="13.48" height="6.18" transform="translate(-68.69 135.73) rotate(-26.34)"/><rect class="cls-1" x="345.84" y="177.4" width="13.48" height="53.34"/><rect class="cls-3" x="345.84" y="185.82" width="13.48" height="6.18"/><rect class="cls-3" x="345.84" y="212.77" width="13.48" height="6.18"/><rect class="cls-1" x="325.06" y="177.4" width="13.48" height="53.34"/><rect class="cls-3" x="325.06" y="185.82" width="13.48" height="6.18"/><rect class="cls-3" x="325.06" y="212.77" width="13.48" height="6.18"/><rect class="cls-1" x="369.98" y="177.4" width="13.48" height="53.34" transform="translate(-51.43 188.33) rotate(-26.34)"/><rect class="cls-3" x="363.25" y="187.4" width="13.48" height="6.18" transform="translate(-46.1 183.94) rotate(-26.34)"/><rect class="cls-3" x="375.21" y="211.55" width="13.48" height="6.18" transform="translate(-55.58 191.75) rotate(-26.34)"/><rect class="cls-1" x="449.99" y="32.65" width="53.56" height="53.56"/><rect class="cls-3" x="460.7" y="43.36" width="32.13" height="32.13"/><polygon class="cls-1" points="470 54.14 476.81 65.94 483.63 77.75 470 77.75 456.37 77.75 463.19 65.94 470 54.14"/><polygon class="cls-1" points="481.84 56.4 488.65 68.2 495.47 80 481.84 80 468.21 80 475.03 68.2 481.84 56.4"/><circle class="cls-1" cx="486.63" cy="48.99" r="3.95"/><rect class="cls-1" x="179.12" y="32.65" width="53.56" height="53.56"/><rect class="cls-3" x="189.83" y="43.36" width="32.13" height="32.13"/><polygon class="cls-1" points="199.14 54.14 205.95 65.94 212.76 77.75 199.14 77.75 185.51 77.75 192.32 65.94 199.14 54.14"/><polygon class="cls-1" points="210.97 56.4 217.79 68.2 224.6 80 210.97 80 197.35 80 204.16 68.2 210.97 56.4"/><circle class="cls-1" cx="215.77" cy="48.99" r="3.95"/><path class="cls-4" d="M71.5,397.84,75,392.48a81.44,81.44,0,0,0-3.56-8.33L69.16,386l1.78-2.74c-1.69-3.34-3-5.44-3-5.44s-7,11-9.29,22.58l4.45,6.88-4.92-4a30.84,30.84,0,0,0-.27,4.08c0,13.75,4.49,24.89,10,24.89s10-11.14,10-24.89a42.9,42.9,0,0,0-2.3-12.85Z" transform="translate(0 0)"/><path class="cls-4" d="M96.06,409.76l6.24-1.33a82.45,82.45,0,0,0,3.38-8.41l-2.87-.31L106,399c1.16-3.56,1.71-6,1.71-6s-12.68,2.83-22.53,9.4l-1.72,8-.67-6.3a32.65,32.65,0,0,0-3.07,2.69c-9.72,9.72-14.43,20.78-10.51,24.7s15-.79,24.69-10.51a42.72,42.72,0,0,0,7.46-10.71Z" transform="translate(0 0)"/><path class="cls-5" d="M98.34,463c-14.48.93-30.26-.06-47.05,0V424.54c14.79,2.3,30.57,2.06,47.05,0Z" transform="translate(0 0)"/><rect class="cls-1" x="501" y="475.03" width="195.51" height="253.55"/><rect class="cls-1" x="92.66" y="488.27" width="10.18" height="240.32"/><rect class="cls-1" y="457.72" width="696.51" height="20.37"/><rect class="cls-1" x="87.57" y="478.09" width="20.37" height="20.37"/><polygon class="cls-4" points="614.15 489.8 613.01 494.38 584.5 494.38 582.78 489.8 510.16 489.8 510.16 536.64 687.34 536.64 687.34 489.8 614.15 489.8"/><polygon class="cls-4" points="614.15 548.86 613.01 553.44 584.5 553.44 582.78 548.86 510.16 548.86 510.16 595.7 687.34 595.7 687.34 548.86 614.15 548.86"/><polygon class="cls-4" points="614.15 607.92 613.01 612.5 584.5 612.5 582.78 607.92 510.16 607.92 510.16 654.76 687.34 654.76 687.34 607.92 614.15 607.92"/><polygon class="cls-4" points="614.15 666.98 613.01 671.56 584.5 671.56 582.78 666.98 510.16 666.98 510.16 713.82 687.34 713.82 687.34 666.98 614.15 666.98"/><polygon class="cls-1" points="377.79 454.67 317.71 454.67 319.74 428.19 375.75 428.19 377.79 454.67"/><rect class="cls-1" x="314.65" y="451.61" width="67.21" height="6.11"/><path class="cls-5" d="M462.81,257.63H233.19a6.1,6.1,0,0,0-6.11,6.11h0v140H468.92v-140a6.1,6.1,0,0,0-6.11-6.11Z" transform="translate(0 0)"/><path class="cls-1" d="M227.08,403.75v22.91a6.1,6.1,0,0,0,6.11,6.11H462.81a6.1,6.1,0,0,0,6.11-6.11h0V403.75Z" transform="translate(0 0)"/><rect class="cls-2" x="239.3" y="270.36" width="217.91" height="122.19"/><circle class="cls-5" cx="348.25" cy="418.01" r="6.11"/><path class="cls-5" d="M865,727.06c-22.26,1.42-46.51-.09-72.3,0V668c22.73,3.54,47,3.17,72.3,0Z" transform="translate(0 0)"/><polygon class="cls-5" points="831.43 673.3 825.32 673.3 827.36 553.95 829.39 553.95 831.43 673.3"/><polygon class="cls-5" points="858.93 674.11 852.82 674.11 854.85 554.75 856.89 554.75 858.93 674.11"/><polygon class="cls-5" points="806.99 674.11 800.88 674.11 802.92 554.75 804.96 554.75 806.99 674.11"/><path class="cls-6" d="M836.52,477.58l9.87-15.25a230.79,230.79,0,0,0-10.12-23.68l-6.38,5.15,5.05-7.81c-4.81-9.47-8.6-15.44-8.6-15.44S806.56,451.72,800,484.73l12.66,19.56L798.6,493a91.58,91.58,0,0,0-.77,11.59c0,39.09,12.76,70.77,28.51,70.77s28.51-31.68,28.51-70.77c0-12.12-2.74-24.79-6.52-36.52Z" transform="translate(0 0)"/><path class="cls-4" d="M864,479.61l9.86-15.24a226.62,226.62,0,0,0-10.12-23.69l-6.38,5.16,5-7.81c-4.81-9.47-8.6-15.44-8.6-15.44s-19.78,31.17-26.38,64.17l12.65,19.56-14-11.31a93.47,93.47,0,0,0-.77,11.59c0,39.08,12.77,70.77,28.51,70.77s28.52-31.69,28.52-70.77c0-12.12-2.74-24.8-6.53-36.52Z" transform="translate(0 0)"/><path class="cls-4" d="M812.08,479.61,822,464.37a231,231,0,0,0-10.12-23.69l-6.38,5.16,5-7.81c-4.81-9.47-8.6-15.44-8.6-15.44s-19.78,31.17-26.39,64.17l12.66,19.56-14-11.31a91.58,91.58,0,0,0-.77,11.59c0,39.08,12.76,70.77,28.51,70.77s28.51-31.69,28.51-70.77c0-12.12-2.74-24.8-6.52-36.52Z" transform="translate(0 0)"/><rect class="cls-6" x="309.96" y="328.74" width="73.94" height="3.37"/><rect class="cls-5" x="309.96" y="340.29" width="43.17" height="3.37"/><rect class="cls-5" x="309.96" y="351.84" width="65.15" height="3.37"/><rect class="cls-6" x="283.18" y="326.83" width="7.19" height="7.19"/><rect class="cls-5" x="283.18" y="338.42" width="7.19" height="7.19"/><rect class="cls-5" x="283.18" y="350.01" width="7.19" height="7.19"/><path class="cls-6" d="M450.59,297.6H419.76a108.09,108.09,0,0,1,0-36.77h30.83A64.2,64.2,0,0,0,450.59,297.6Z" transform="translate(0 0)"/><path class="cls-7" d="M222.76,372.14l-12.68-3.09a32.65,32.65,0,0,1-32.7-32.61,33,33,0,0,1,.65-6.51h0a42.68,42.68,0,0,1,42.63-42.74h0a42.69,42.69,0,0,1,42.74,42.63h0C270.59,354.85,248.06,378.31,222.76,372.14Z" transform="translate(0 0)"/><circle class="cls-8" cx="236.62" cy="345.24" r="31.36"/><path class="cls-8" d="M216.17,361.61s-9.55,32.72-15,35.45,43.63,6.82,43.63,6.82-1.36-31.36,1.37-34.09S216.17,361.61,216.17,361.61Z" transform="translate(0 0)"/><path class="cls-7" d="M265.26,563.43s61.36-5.46,69.54,15-5.45,141.81-5.45,141.81H303.44V620.7S193,589.3,193,578.39,265.26,563.43,265.26,563.43Z" transform="translate(0 0)"/><path class="cls-7" d="M325.26,714.79l13.63,5.45s16.37-1.36,9.55,10.91a27,27,0,0,1-19.09,13.64s-25.91,9.54-27.28,0,6.82-28.64,6.82-28.64Z" transform="translate(0 0)"/><path class="cls-7" d="M231.17,563.43s61.36-5.46,69.54,15-5.45,141.81-5.45,141.81H269.35V620.7s-78.42-18.17-78.42-29.07c0-5.13-5.34-31.18,4.07-36.66C205.63,548.77,231.17,563.43,231.17,563.43Z" transform="translate(0 0)"/><path class="cls-7" d="M291.17,714.79l13.63,5.45s16.37-1.36,9.55,10.91a27,27,0,0,1-19.09,13.64s-25.91,9.54-27.28,0,6.82-28.64,6.82-28.64Z" transform="translate(0 0)"/><path class="cls-9" d="M202.53,393l41,4.46a30.18,30.18,0,0,1,26.27,23.76l15.93,75.42s5.46,75-5.45,79.09-25.91-16.37-46.37-13.64-47,8.87-47,8.87-4.23-134.25-4.78-145.23C181,403.75,202.53,393,202.53,393Z" transform="translate(0 0)"/><path class="cls-8" d="M299.6,567.32l16.82,9.91s30.19-4.33,29.24,6.28-33.88,8.56-33.88,8.56l-20.28-12.5Z" transform="translate(0 0)"/><circle class="cls-7" cx="175.74" cy="299.48" r="20.26"/><path class="cls-7" d="M194.44,288.58a20.25,20.25,0,0,0-20.27-20.23,19.68,19.68,0,0,0-4,.4,20.25,20.25,0,1,1,12.63,38.16A20.24,20.24,0,0,0,194.44,288.58Z" transform="translate(0 0)"/><path class="cls-7" d="M211.82,300.07l27.31-5,21,13.17a31.86,31.86,0,0,1,14.68,31.1l-21-5.34-4.71-11.81-5.61,9.2-29.33,37.75-16.47-10.49-14.68-23Z" transform="translate(0 0)"/><path class="cls-9" d="M234.31,404.57,248,397.75s28.63,4.09,34.09,23.18S312,572.3,312,572.3l-23.19,10.91-32.72-80.46Z" transform="translate(0 0)"/><polygon class="cls-10" points="245.92 458.23 259.56 511.2 283.77 570.7 282.93 572.76 254.06 512.2 245.92 458.23"/><polygon class="cls-5" points="144.08 750.38 139.27 748.72 185.9 610.23 192.64 612.55 144.08 750.38"/><polygon class="cls-5" points="322.29 750.38 327.11 748.72 280.48 610.23 273.74 612.55 322.29 750.38"/><polygon class="cls-5" points="223.77 778.98 228.86 779 230.44 617.11 223.31 617.08 223.77 778.98"/><path class="cls-4" d="M132.3,528.86l14,56.44A44.8,44.8,0,0,0,178.91,618h0a238.18,238.18,0,0,0,118.54-.76l20.86-5.5c12.11-3.2,21.22-13.6,22.08-26.1a25.69,25.69,0,0,0-2.32-12.87l-.24-.52a34.11,34.11,0,0,0-29.6-19.14l-22.09-.71-80.45-35.64s-27.66-14-50.41-15.63C140.26,500.12,128.68,514.24,132.3,528.86Z" transform="translate(0 0)"/><rect class="cls-1" x="543.26" y="351.31" width="79.43" height="107.94"/><rect class="cls-2" x="552.42" y="363.76" width="61.1" height="83.03"/><rect class="cls-5" x="576.47" y="385.49" width="29.6" height="3.37"/><rect class="cls-5" x="559.87" y="383.62" width="7.19" height="7.19"/><rect class="cls-5" x="576.47" y="399.75" width="29.6" height="3.37"/><rect class="cls-5" x="559.87" y="397.88" width="7.19" height="7.19"/><rect class="cls-5" x="576.47" y="414" width="29.6" height="3.37"/><rect class="cls-5" x="559.87" y="412.14" width="7.19" height="7.19"/><path class="cls-5" d="M583,354.36h0a3.05,3.05,0,0,1,3,3.06h0a3,3,0,0,1-3,3.05h0a3.05,3.05,0,0,1-3.06-3.05h0A3.06,3.06,0,0,1,583,354.36Z" transform="translate(0 0)"/><path class="cls-4" d="M270.47,297.67c2.87,0,5.74,0,8.61,0a9.4,9.4,0,0,0,2.49-.23,5.46,5.46,0,0,0,2.29-9.19,1.67,1.67,0,0,1-.58-2,5.12,5.12,0,0,0-5-6.6c-2.94,0-5.88,0-9.08,0a10,10,0,0,1,.84-.65c2.41-1.41,4.81-2.86,7.27-4.19a2.3,2.3,0,0,1,1.87,0q5.26,2.91,10.41,6a2.09,2.09,0,0,1,.9,1.48q.11,6.08,0,12.17a2.1,2.1,0,0,1-.85,1.49c-3.44,2.07-6.92,4.06-10.41,6a1.81,1.81,0,0,1-1.41.26c-2.51-1.37-5-2.84-7.44-4.27Z" transform="translate(0 0)"/><path class="cls-4" d="M346.67,293.58c-2.67,1.81-4.54,3.78-3.48,7.17h-4.6V275.87H343v14.29l.32.17c.41-.4.83-.78,1.23-1.19,1.8-1.82,3.56-3.7,5.44-5.45a4,4,0,0,1,2.15-.9,35.69,35.69,0,0,1,4.06,0l-6.53,7.06,6.67,11c-1.73,0-3.24.05-4.73,0-.3,0-.63-.51-.85-.84-1.16-1.8-2.29-3.63-3.43-5.44C347.11,294.18,346.87,293.86,346.67,293.58Z" transform="translate(0 0)"/><path class="cls-4" d="M293.06,291.7c0-5.32,4.42-9.28,10.2-9.23a9.46,9.46,0,0,1,9.51,9.36,9.65,9.65,0,0,1-9.92,9.3C297.36,301,293,296.86,293.06,291.7Zm9.93-5.12a5.2,5.2,0,0,0-5.44,5.15,5.39,5.39,0,0,0,5.37,5.29,5.33,5.33,0,0,0,5.35-5.15A5.17,5.17,0,0,0,303,286.58Z" transform="translate(0 0)"/><path class="cls-4" d="M325.68,282.47c5.54,0,9.8,4.06,9.8,9.33a9.59,9.59,0,0,1-9.87,9.33c-5.52-.1-9.82-4.22-9.82-9.41S320.14,282.46,325.68,282.47Zm.06,4.11a5.25,5.25,0,0,0-5.47,5.13,5.37,5.37,0,0,0,10.74.18A5.18,5.18,0,0,0,325.74,286.58Z" transform="translate(0 0)"/><path class="cls-4" d="M373.48,295.07l2.74,2.3a10.21,10.21,0,0,1-10.62,3.38,8.64,8.64,0,0,1-6.57-7.37,9.06,9.06,0,0,1,4.47-9.76,9,9,0,0,1,9.56.22c3.26,2.1,3.94,5.43,3.83,9.2h-13.3C364.35,297.5,369.31,298.47,373.48,295.07Zm-1.11-4.92a3.71,3.71,0,0,0-3.75-4.06,4.46,4.46,0,0,0-5,4.06Z" transform="translate(0 0)"/><path class="cls-4" d="M394.24,299.28l1.51-3c2,.38,4,.79,5.94,1.07a4.1,4.1,0,0,0,2.17-.25,2.11,2.11,0,0,0,1.14-1.38,1.78,1.78,0,0,0-.95-1.33,31.32,31.32,0,0,0-3.33-1,28.7,28.7,0,0,1-3.42-1.17,4.35,4.35,0,0,1-2.77-4.16,4.83,4.83,0,0,1,2.73-4.68c3-1.54,6.07-1,9.14-.23.62.16,1.22.43,2,.71-.49,1.13-.95,2.17-1.35,3.07-2-.3-4-.6-5.88-.84a2.15,2.15,0,0,0-1.34.21c-.49.34-1.09.86-1.15,1.36s.56,1.08,1,1.26a36.47,36.47,0,0,0,3.74,1.09c.67.19,1.36.35,2,.6,2.68,1,3.83,2.59,3.76,5.08s-1.53,4.18-4.17,5A15.09,15.09,0,0,1,394.24,299.28Z" transform="translate(0 0)"/><path class="cls-4" d="M380.1,282.82h4.49c.05.69.1,1.35.17,2.23a7.85,7.85,0,0,1,5.36-2.59c1,0,1.46.22,1.38,1.32s0,2.41,0,3.67a27.21,27.21,0,0,0-3,0,4,4,0,0,0-3.75,4.11c-.07,2.52,0,5,0,7.55v1.62H380.1Z" transform="translate(0 0)"/><path class="cls-11" d="M267.9,294.16V290.1h4c3,0,6,0,8.95,0a2,2,0,0,1,2.28,1.62,1.79,1.79,0,0,1-1,2.2,2.15,2.15,0,0,1-.93.22Z" transform="translate(0 0)"/><path class="cls-11" d="M267.87,286.59v-3.34a6.28,6.28,0,0,1,.94-.14h10.34c1.56,0,2.33.63,2.3,1.8s-.78,1.67-2.28,1.67C275.45,286.6,271.73,286.59,267.87,286.59Z" transform="translate(0 0)"/><path class="cls-12" d="M293.41,306.57h2.78a3.58,3.58,0,0,1,3.91,3.67,3.67,3.67,0,0,1-3.92,3.8h-2.77Zm.65,6.93h2a3.2,3.2,0,1,0,0-6.4h-2Z" transform="translate(0 0)"/><path class="cls-12" d="M310,310.37h-4.29v3.13h4.7l-.1.54h-5.25v-7.47h5.15v.53h-4.5v2.73H310Z" transform="translate(0 0)"/><path class="cls-12" d="M315.24,312a2.13,2.13,0,0,0,2.38,1.58c1.54,0,2.13-.68,2.13-1.49s-.43-1.37-2.27-1.77-2.55-.91-2.55-2,.8-1.9,2.61-1.9,2.63,1,2.73,1.91h-.67c-.19-.8-.78-1.37-2.1-1.37s-1.87.5-1.87,1.33.55,1.14,2.1,1.48c2.36.52,2.71,1.37,2.71,2.26,0,1.1-.9,2.05-2.84,2.05-2.11,0-2.87-1.09-3-2.09Z" transform="translate(0 0)"/><path class="cls-12" d="M325.35,306.57H326v3.88c.67-.57,3.07-2.58,4.57-3.88h.87l-3.77,3.18,4,4.29h-.8l-3.65-3.92-1.2.94v3h-.65Z" transform="translate(0 0)"/><path class="cls-4" d="M344.23,312.73v-.12c.3,0,.33-.07.27-.24l-.25-.65h-1c-.07.19-.14.36-.2.54s0,.31.34.35v.12h-1.06v-.12c.29,0,.36-.06.52-.45l.95-2.25.14,0,.9,2.29c.14.37.19.41.51.44v.12Zm-.46-2.29c-.14.37-.3.76-.44,1.1h.86Z" transform="translate(0 0)"/><path class="cls-4" d="M349.76,312c0,.13-.17.58-.21.71h-2.13v-.12c.41,0,.45-.06.45-.42v-1.71c0-.36,0-.38-.41-.42v-.12h1.23v.12c-.37,0-.42.05-.42.42v1.75c0,.26,0,.32.3.33h.36c.23,0,.3,0,.41-.13a1.51,1.51,0,0,0,.28-.44Z" transform="translate(0 0)"/><path class="cls-4" d="M354.27,312a6.36,6.36,0,0,1-.21.71h-2.12v-.12c.41,0,.45-.06.45-.42v-1.71c0-.36-.05-.38-.41-.42v-.12h1.22v.12c-.36,0-.41.05-.41.42v1.75c0,.26,0,.32.29.33h.37c.23,0,.3,0,.4-.13a1.33,1.33,0,0,0,.28-.44Z" transform="translate(0 0)"/><path class="cls-4" d="M359.47,312.73v-.12c.38,0,.42-.05.42-.42v-1.7c0-.37,0-.39-.42-.43v-.12h1.23v.12c-.38,0-.41.06-.41.43v1.7c0,.37,0,.38.41.42v.12Z" transform="translate(0 0)"/><path class="cls-4" d="M366.24,310.06c-.29,0-.39.08-.4.27s0,.32,0,.72v1.72h-.18l-2-2.24v1.07a7,7,0,0,0,0,.7c0,.22.12.29.45.31v.12h-1.11v-.12c.28,0,.39-.08.41-.29s0-.33,0-.72v-1.1a.35.35,0,0,0-.09-.28c-.09-.11-.18-.14-.41-.16v-.12h.69l1.94,2.16v-1.05c0-.4,0-.58,0-.71s-.12-.26-.49-.28v-.12h1.13Z" transform="translate(0 0)"/><path class="cls-4" d="M371.46,313.3v-.2c.92-.05,1-.08,1-.6v-2.66c0-.36-.06-.37-.42-.4l-.41,0v-.18a7,7,0,0,0,1.52-.34v3.61c0,.53.05.55,1,.6v.2Z" transform="translate(0 0)"/><path class="cls-4" d="M381.33,312.05a4.51,4.51,0,0,1-.25.64,4,4,0,0,1-.84.11,1.47,1.47,0,0,1-1.65-1.44,1.55,1.55,0,0,1,1.74-1.48,5,5,0,0,1,.86.1c0,.19.05.45.09.67l-.14,0a.79.79,0,0,0-.44-.56,1.38,1.38,0,0,0-.48-.08,1.1,1.1,0,0,0-1.15,1.23,1.19,1.19,0,0,0,1.2,1.36,1,1,0,0,0,.93-.63Z" transform="translate(0 0)"/><path class="cls-4" d="M386,312c0,.13-.17.58-.21.71h-2.13v-.12c.41,0,.45-.06.45-.42v-1.71c0-.36-.05-.38-.41-.42v-.12h1.23v.12c-.37,0-.42.05-.42.42v1.75c0,.26,0,.32.3.33h.36c.23,0,.3,0,.41-.13a1.3,1.3,0,0,0,.27-.44Z" transform="translate(0 0)"/><path class="cls-4" d="M388.2,312.73v-.12c.38,0,.42-.05.42-.42v-1.7c0-.37,0-.39-.42-.43v-.12h1.23v.12c-.38,0-.41.06-.41.43v1.7c0,.37,0,.38.41.42v.12Z" transform="translate(0 0)"/><path class="cls-4" d="M394.52,312.05a4.51,4.51,0,0,1-.25.64,4,4,0,0,1-.83.11,1.48,1.48,0,0,1-1.66-1.44,1.55,1.55,0,0,1,1.74-1.48,5,5,0,0,1,.86.1c0,.19.05.45.09.67l-.14,0a.74.74,0,0,0-.44-.56,1.34,1.34,0,0,0-.48-.08,1.11,1.11,0,0,0-1.15,1.23,1.2,1.2,0,0,0,1.2,1.36,1,1,0,0,0,.93-.63Z" transform="translate(0 0)"/><path class="cls-4" d="M396.88,309.94h1.22v.12c-.35,0-.42.06-.42.44v.74a.64.64,0,0,0,.33-.19c.26-.23.56-.52.78-.75s.12-.2-.08-.22l-.13,0v-.12h1.12v.12a1,1,0,0,0-.77.36l-.79.72c.35.39.86.94,1.09,1.17a.73.73,0,0,0,.58.3v.12h-.73c-.35-.37-.73-.79-1.14-1.24a.31.31,0,0,0-.26-.13v.82c0,.37,0,.4.42.43v.12h-1.22v-.12c.38,0,.41-.06.41-.43V310.5c0-.38,0-.41-.41-.44Z" transform="translate(0 0)"/><path class="cls-4" d="M323.71,294.54h-.81v-.84h.81Z" transform="translate(0 0)"/><path class="cls-4" d="M324.41,293.7h.82v.84h-.82Z" transform="translate(0 0)"/><path class="cls-4" d="M326.85,293.7v.83H326v-.83Z" transform="translate(0 0)"/><path class="cls-4" d="M322.89,290.81h.82v.83h-.82Z" transform="translate(0 0)"/><path class="cls-4" d="M324.41,291.64v-.83h.82v.83Z" transform="translate(0 0)"/><path class="cls-4" d="M326.85,290.81v.83H326v-.83Z" transform="translate(0 0)"/><path class="cls-4" d="M328.33,290.81v.83h-.82v-.83Z" transform="translate(0 0)"/><path class="cls-4" d="M327.52,289.37h.81v.83h-.81Z" transform="translate(0 0)"/><path class="cls-4" d="M325.23,290.21h-.81v-.84h.81Z" transform="translate(0 0)"/><path class="cls-4" d="M326.85,289.37v.83H326v-.83Z" transform="translate(0 0)"/><path class="cls-4" d="M322.89,292.25h.82v.84h-.82Z" transform="translate(0 0)"/><path class="cls-4" d="M324.41,293.08v-.83h.82v.83Z" transform="translate(0 0)"/><path class="cls-4" d="M326.85,292.25v.84H326v-.84Z" transform="translate(0 0)"/><path class="cls-4" d="M328.33,292.25v.83h-.82v-.83Z" transform="translate(0 0)"/><rect class="cls-4" x="341.97" y="314.04" width="57.84" height="0.07"/></svg>