<svg id="Layer_1" data-name="Layer 1" xmlns="http://www.w3.org/2000/svg" xmlns:xlink="http://www.w3.org/1999/xlink" viewBox="0 0 32.62 35.55"><defs><style>.cls-1{fill:#c4c4c4;}.cls-2{mask:url(#mask);}.cls-3{fill:url(#linear-gradient);}.cls-4{fill:url(#linear-gradient-2);}.cls-5{fill:url(#linear-gradient-3);}.cls-6{fill:url(#linear-gradient-4);}.cls-7{fill:#9c5aff;}.cls-8{fill:url(#linear-gradient-5);}.cls-9{font-size:22.67px;fill:#fff;font-family:BritannicBold, Britannic Bold;}</style><mask id="mask" x="0" y="0" width="32.62" height="35.55" maskUnits="userSpaceOnUse"><g transform="translate(1.43 0.96)"><g id="mask0_13247_81097" data-name="mask0 13247 81097"><path class="cls-1" d="M12.06,1A5.63,5.63,0,0,1,17.7,1l9.24,5.33a5.64,5.64,0,0,1,2.82,4.89V21.83a5.64,5.64,0,0,1-2.82,4.89L17.7,32.05a5.63,5.63,0,0,1-5.64,0L2.82,26.72A5.66,5.66,0,0,1,0,21.83V11.17A5.66,5.66,0,0,1,2.82,6.28Z"/></g></g></mask><linearGradient id="linear-gradient" x1="15.08" y1="33.74" x2="14.79" y2="22.42" gradientTransform="matrix(1, 0, 0, -1, 0, 34.25)" gradientUnits="userSpaceOnUse"><stop offset="0" stop-color="#4e00d3"/><stop offset="1" stop-color="#7a36f0"/></linearGradient><linearGradient id="linear-gradient-2" x1="10.18" y1="6.9" x2="1.2" y2="17.66" gradientTransform="matrix(1, 0, 0, -1, 0, 34.25)" gradientUnits="userSpaceOnUse"><stop offset="0" stop-color="#5508d8"/><stop offset="1" stop-color="#7935ef"/></linearGradient><linearGradient id="linear-gradient-3" x1="19.89" y1="5.82" x2="28.47" y2="17.28" gradientTransform="matrix(1, 0, 0, -1, 0, 34.25)" gradientUnits="userSpaceOnUse"><stop offset="0" stop-color="#5205d6"/><stop offset="1" stop-color="#7a35f0"/></linearGradient><linearGradient id="linear-gradient-4" x1="14.88" y1="28.17" x2="14.88" y2="8.33" gradientTransform="matrix(1, 0, 0, -1, 0, 34.25)" gradientUnits="userSpaceOnUse"><stop offset="0" stop-color="#7935ef"/><stop offset="1" stop-color="#6117e0"/></linearGradient><linearGradient id="linear-gradient-5" x1="3.27" y1="16.61" x2="27.15" y2="16.61" gradientTransform="matrix(0.97, 0, 0, 0.98, 1.67, 1.12)" xlink:href="#linear-gradient-4"/></defs><g class="cls-2"><path class="cls-3" d="M14.88-1,31.19,8.45,22.93,12.9,19.52,11l-3.1.31L8.67,8.56,6.82,11l-.93,1.24L4,11-1.43,8.45Z" transform="translate(1.43 0.96)"/><path class="cls-4" d="M-.13,8.59,6.2,11.66l3.72,9V21l1.24,1.55,5.58,4.34-1.86,7.74-15-8.66Z" transform="translate(1.43 0.96)"/><path class="cls-5" d="M19.83,21l4-8.68,6-3.68V25.92l-15,8.66-.32-7.74Z" transform="translate(1.43 0.96)"/><path class="cls-6" d="M14.88,6.08A9.93,9.93,0,0,0,8.21,8.65L9.64,21a18.69,18.69,0,0,0,3.07.93h3.1c.54,0,4.34-1.17,4.34-.62L19.84,20a1,1,0,0,1-1,1H10.91a1,1,0,0,1-1-1v-4.8a3,3,0,0,0-.28-1.25L8.21,8.65C6.62,10.41,5,13.44,5,16a9.92,9.92,0,1,0,9.92-9.92Z" transform="translate(1.43 0.96)"/><path class="cls-7" d="M13,10.22a1.44,1.44,0,0,1,.68-.09,1.51,1.51,0,0,1,.66.21,1.52,1.52,0,0,1,.71,1.14A7.91,7.91,0,0,1,14,16.35a7.75,7.75,0,0,1-3.79,3.22L9.12,16.7a4.63,4.63,0,0,0,2.26-1.93,4.69,4.69,0,0,0,.66-2.9,1.55,1.55,0,0,1,.22-1,1.58,1.58,0,0,1,.78-.66Z" transform="translate(1.43 0.96)"/><path class="cls-7" d="M13,10.23a1.56,1.56,0,0,0-.89,2l3.25,8.67a1.49,1.49,0,0,0,.8.85,1.53,1.53,0,0,0,1.17,0h0a1.54,1.54,0,0,0,.51-.33,1.58,1.58,0,0,0,.34-.5,1.46,1.46,0,0,0,.14-.59,1.7,1.7,0,0,0-.1-.59L15,11.1a1.52,1.52,0,0,0-.32-.51,1.36,1.36,0,0,0-.48-.34,1.33,1.33,0,0,0-.58-.13A1.29,1.29,0,0,0,13,10.23Z" transform="translate(1.43 0.96)"/><path class="cls-7" d="M17.34,21.78A1.49,1.49,0,0,1,16,21.66a1.47,1.47,0,0,1-.48-.48,1.41,1.41,0,0,1-.23-.66,7.85,7.85,0,0,1,4.86-8.09l1.11,2.88A4.66,4.66,0,0,0,19,17.23a4.74,4.74,0,0,0-.66,2.91,1.58,1.58,0,0,1-.22,1,1.51,1.51,0,0,1-.78.65Z" transform="translate(1.43 0.96)"/></g><circle class="cls-8" cx="16.43" cy="17.46" r="11.58"/><text class="cls-9" transform="translate(9.1 25.28) scale(1.07 1)">B</text><text x="1.43" y="0.96"/></svg>